<?xml version="1.0" standalone="no"?>
<!DOCTYPE svg PUBLIC "-//W3C//DTD SVG 20010904//EN"
 "http://www.w3.org/TR/2001/REC-SVG-20010904/DTD/svg10.dtd">
<svg version="1.0" xmlns="http://www.w3.org/2000/svg"
 width="853.000000pt" height="853.000000pt" viewBox="0 0 853.000000 853.000000"
 preserveAspectRatio="xMidYMid meet">
<metadata>
Created by potrace 1.11, written by Peter Selinger 2001-2013
</metadata>
<g transform="translate(0.000000,853.000000) scale(0.100000,-0.100000)"
fill="#000000" stroke="none">
<path d="M0 7404 l0 -1126 193 5 c105 2 386 6 622 8 383 4 433 6 461 21 35 19
44 35 44 78 0 39 21 53 69 45 50 -8 56 -24 25 -66 -37 -50 -32 -69 15 -69 28
0 54 9 85 31 47 31 58 49 31 49 -9 0 -21 11 -27 25 -9 21 -5 37 35 120 56 116
127 212 244 331 100 102 233 211 268 220 13 3 32 1 43 -5 35 -19 51 -12 67 25
18 43 33 41 60 -9 14 -26 27 -37 43 -37 18 0 22 5 22 33 0 35 24 77 43 77 7 0
18 -9 24 -20 13 -20 116 -90 134 -90 5 0 20 7 33 15 20 13 35 14 87 6 35 -5
87 -13 115 -16 l52 -5 41 49 c29 34 41 58 41 80 0 20 8 39 23 52 73 65 106 87
139 93 21 4 50 17 65 30 15 13 52 36 81 51 40 21 52 32 52 50 0 35 18 77 30
70 6 -4 10 -12 9 -18 -8 -69 21 -98 53 -54 11 15 24 25 29 21 5 -3 9 4 9 15 0
30 15 33 30 6 16 -30 27 -32 35 -5 3 11 11 20 16 20 6 0 7 -6 3 -12 -5 -9 -3
-9 9 1 9 7 15 16 12 20 -2 4 24 7 59 7 69 -1 73 -8 34 -52 -10 -11 -15 -24
-11 -27 4 -4 -16 -7 -43 -6 -27 1 -52 7 -57 13 -5 7 -12 5 -21 -6 -7 -10 -16
-15 -19 -11 -4 3 -7 0 -8 -8 0 -8 -2 -23 -4 -34 -7 -34 13 -45 81 -45 75 0 74
4 60 -127 -3 -24 -8 -48 -11 -53 -4 -6 4 -21 18 -34 l24 -23 -2 31 c-4 53 5
59 37 24 l29 -33 -5 37 c-6 39 11 68 40 68 12 0 11 -6 -6 -29 -20 -30 -20 -30
-1 -40 14 -8 28 -8 48 1 15 6 32 10 37 9 5 -1 13 4 17 11 6 8 9 9 9 1 0 -6
-15 -20 -32 -32 -27 -17 -29 -21 -13 -21 12 0 26 5 33 12 9 9 12 8 12 -5 0 -9
-7 -20 -15 -25 -13 -7 -12 -10 9 -22 14 -7 26 -22 28 -33 5 -37 28 -32 28 7 0
29 3 34 18 29 9 -4 21 -12 25 -20 11 -19 52 20 43 42 -3 9 -10 14 -14 11 -5
-3 -7 6 -4 21 3 18 1 24 -7 19 -16 -10 -14 3 4 21 20 19 11 30 -10 13 -10 -8
-15 -9 -15 -1 0 6 5 11 11 11 7 0 9 12 4 36 -4 22 -3 34 3 30 11 -7 9 40 -3
68 -5 12 -1 39 10 73 16 45 22 54 40 51 12 -1 29 3 37 10 22 18 108 28 108 13
0 -8 8 -10 21 -6 18 6 20 4 14 -14 -8 -27 3 -27 26 0 13 15 25 20 43 15 15 -4
26 -1 28 6 3 9 11 9 29 -3 24 -16 54 -15 44 1 -3 4 8 16 23 26 24 16 26 16 13
1 -8 -10 -11 -20 -8 -23 9 -10 39 5 33 15 -3 5 1 12 10 15 8 3 13 10 10 15 -3
5 1 12 10 15 8 3 12 2 9 -4 -3 -6 1 -10 10 -10 9 0 15 7 13 16 -2 12 6 17 27
20 23 2 26 1 15 -7 -11 -8 -12 -12 -3 -16 9 -3 10 -10 3 -24 -8 -15 -7 -19 5
-19 11 0 15 -11 15 -40 0 -37 -2 -40 -27 -41 -16 0 -23 -3 -16 -6 14 -5 -16
-70 -39 -85 -21 -13 -67 -9 -93 8 -13 9 -29 13 -35 9 -5 -3 -10 1 -10 9 0 12
-10 15 -39 14 l-38 -1 27 -41 c32 -46 30 -56 -7 -56 l-26 0 26 -24 c55 -51
140 -78 226 -71 50 4 51 4 40 -16 -8 -16 -14 -18 -22 -10 -19 19 -25 13 -25
-23 0 -19 -3 -39 -6 -45 -4 -5 -1 -13 5 -17 8 -5 8 -9 -2 -14 -7 -5 1 -8 22
-7 32 2 34 0 31 -26 -2 -16 2 -35 9 -43 9 -11 9 -14 -1 -14 -6 0 -14 9 -17 20
-7 27 -12 26 -58 -19 -40 -38 -40 -39 -39 -110 2 -64 5 -75 35 -116 19 -24 38
-45 42 -45 5 0 27 -15 48 -34 38 -32 70 -82 82 -126 6 -22 -12 -90 -24 -90 -4
0 -7 -24 -7 -54 0 -29 -3 -59 -7 -66 -5 -7 -9 -29 -11 -49 -2 -26 -1 -32 6
-21 5 8 10 11 11 5 3 -26 -5 -52 -22 -68 -10 -10 -19 -24 -19 -32 0 -18 -40
-95 -49 -95 -4 0 -13 6 -20 13 -11 10 -14 10 -18 0 -3 -7 -16 -13 -29 -13 -14
0 -27 -7 -30 -15 -4 -8 -15 -15 -26 -15 -13 0 -18 -5 -15 -14 3 -8 -3 -23 -14
-34 -23 -25 -25 -42 -4 -42 8 0 15 -9 15 -20 0 -11 5 -20 10 -20 6 0 10 15 10
34 0 22 6 36 16 40 20 8 47 -12 40 -30 -3 -7 0 -15 7 -18 8 -3 6 -8 -5 -16
-10 -6 -18 -20 -18 -30 0 -22 -25 -27 -34 -7 -3 8 -9 6 -20 -7 -15 -19 -21
-13 -17 19 1 6 -5 2 -13 -8 -18 -23 -31 -5 -16 23 6 11 7 20 3 20 -10 0 -39
-32 -45 -51 -3 -9 -11 -1 -21 21 -8 19 -16 29 -16 23 -1 -7 -7 -13 -13 -13 -7
0 -21 -14 -30 -31 -22 -38 -23 -56 -3 -39 8 7 16 10 16 6 1 -3 2 -10 3 -15 0
-5 4 -12 8 -16 9 -9 -1 -35 -14 -35 -6 0 -8 7 -4 15 3 8 1 15 -4 15 -6 0 -10
-5 -10 -11 0 -6 -8 -8 -17 -5 -10 3 -31 8 -47 10 -17 3 -34 12 -38 21 -5 8
-15 15 -22 15 -21 0 -76 31 -76 43 0 8 -3 8 -11 0 -6 -6 -17 -9 -24 -7 -7 3
-16 1 -20 -5 -3 -6 -15 -11 -26 -11 -12 0 -19 -7 -19 -20 0 -11 -3 -20 -7 -20
-48 3 -228 161 -280 244 -33 54 -73 96 -91 96 -12 0 -12 -4 2 -25 23 -35 20
-45 -12 -39 -22 4 -35 -1 -64 -29 -48 -45 -80 -50 -267 -40 -86 4 -164 8 -173
7 -10 0 -18 3 -18 8 0 4 -4 8 -10 8 -5 0 -21 10 -35 22 -29 25 -33 70 -10 124
8 20 12 40 9 45 -3 6 -109 7 -257 5 -139 -3 -549 -8 -912 -11 -363 -4 -754 -8
-870 -10 -116 -2 -348 -4 -517 -4 l-308 -1 0 -106 0 -107 633 7 c1047 10 1525
16 1877 21 l335 6 35 -36 c34 -35 37 -36 99 -34 l63 2 33 -71 c18 -39 31 -73
27 -76 -3 -3 -33 -6 -66 -6 l-61 -1 38 -34 c60 -52 49 -69 -48 -76 -44 -4 -84
-8 -90 -9 -21 -5 -91 1 -103 8 -7 5 -14 31 -15 60 l-2 52 -89 0 c-79 0 -87 -2
-82 -17 9 -23 -15 -103 -31 -103 -14 0 -17 -23 -14 -78 3 -41 -13 -62 -48 -62
-39 0 -51 18 -51 77 0 46 -3 53 -20 53 -20 0 -26 -23 -20 -87 4 -55 -56 -123
-110 -123 -20 0 -45 -7 -56 -15 -10 -8 -29 -15 -41 -15 -17 0 -23 -8 -28 -38
-11 -67 -11 -67 -152 -67 -89 0 -151 -6 -203 -18 -200 -49 -237 -68 -300 -154
-45 -62 -67 -79 -56 -45 3 9 -1 30 -9 46 -17 32 -21 206 -6 235 21 39 10 251
-14 271 -14 12 -9 86 8 108 7 9 2 12 -22 12 -27 0 -30 -3 -23 -17 5 -10 10
-82 11 -159 2 -114 0 -142 -12 -147 -19 -7 -34 4 -46 35 -6 17 -20 28 -38 33
-47 10 -73 39 -79 89 -4 27 -12 46 -19 46 -17 0 -28 76 -15 100 10 19 7 20
-102 20 -311 0 -728 -14 -718 -24 5 -5 10 -29 10 -52 0 -25 5 -44 13 -47 6 -3
2 -6 -10 -6 -18 -1 -22 -9 -28 -53 -13 -99 -24 -128 -48 -127 -28 1 -116 99
-123 139 -4 18 -14 30 -28 34 -19 5 -21 11 -18 48 3 28 11 49 24 59 21 16 6
17 -144 10 -17 -1 -18 -25 -18 -353 0 -314 3 -363 20 -442 23 -101 25 -171 9
-246 -15 -71 -19 -369 -24 -1824 l-5 -1268 24 6 c87 22 180 28 270 17 52 -6
175 -11 273 -11 307 -1 419 -13 550 -57 l113 -38 0 -45 c0 -25 -7 -101 -14
-170 -8 -69 -18 -179 -21 -245 -4 -66 -8 -131 -10 -145 -3 -23 -10 -184 -20
-430 l-4 -95 -43 -39 c-24 -21 -66 -56 -94 -77 -54 -40 -206 -187 -286 -277
l-46 -52 622 0 622 0 90 185 89 185 65 -6 c84 -8 154 -20 207 -35 57 -17 64
-6 19 33 -45 38 -66 76 -66 118 0 40 13 38 60 -8 189 -185 231 -222 255 -222
14 0 28 -1 32 -2 10 -4 12 31 2 38 -5 3 -7 10 -4 15 4 5 0 9 -8 9 -7 0 -14 7
-14 14 0 12 5 13 21 4 12 -5 -3 11 -32 37 -43 38 -63 68 -107 161 -32 66 -63
118 -76 124 -38 21 -126 24 -153 6 -26 -16 -153 -28 -158 -15 -4 11 -149 59
-159 53 -12 -7 -11 29 1 61 9 25 14 27 48 21 93 -16 84 -26 108 119 12 72 34
169 49 217 27 88 27 125 1 115 -8 -3 -19 0 -25 7 -17 20 -4 59 28 88 36 33 46
51 71 130 18 58 23 65 74 95 l54 33 -5 118 c-4 90 -2 130 10 172 27 94 65 245
93 367 29 133 87 332 144 503 21 63 48 153 60 200 37 145 110 360 162 475 43
94 49 115 44 152 -3 24 -2 43 2 43 4 0 14 21 21 48 17 61 125 317 152 361 l20
34 97 -9 c119 -11 224 -9 289 4 54 11 155 1 161 -16 6 -20 63 -14 69 7 4 17 7
17 34 4 16 -8 31 -18 34 -24 10 -15 23 -10 30 11 8 27 19 25 33 -5 10 -21 3
-50 -43 -192 -83 -259 -146 -524 -125 -531 15 -5 12 -22 -4 -22 -7 0 -16 -14
-20 -31 -10 -50 -7 -59 14 -59 14 0 20 -7 20 -21 0 -14 -5 -19 -17 -17 -10 2
-17 10 -16 16 2 7 -1 12 -6 12 -4 0 -16 -39 -25 -87 -88 -449 -227 -987 -308
-1192 -21 -53 -26 -77 -18 -86 8 -9 6 -14 -7 -17 -13 -4 -37 -61 -90 -224 -40
-120 -75 -237 -77 -259 -2 -22 -20 -96 -39 -165 -19 -69 -47 -179 -62 -245
-15 -66 -36 -153 -46 -194 -11 -40 -24 -121 -29 -180 -25 -259 -31 -307 -43
-316 -6 -5 -12 -26 -12 -45 0 -31 -6 -39 -61 -75 -33 -22 -76 -52 -95 -67
l-34 -28 2908 0 2907 0 -2 1193 c-2 900 -6 1191 -15 1190 -18 -4 -117 28 -126
41 -6 8 -10 7 -14 -3 -4 -11 -9 -9 -17 8 l-12 21 -23 -21 -23 -22 7 21 c5 17
3 21 -9 16 -11 -4 -16 -1 -16 10 0 9 -4 16 -10 16 -5 0 -10 -10 -10 -22 l0
-23 -22 25 c-49 54 -118 148 -118 161 0 10 329 -30 388 -47 l22 -6 0 260 0
261 -42 5 c-126 16 -181 17 -209 6 -25 -11 -32 -10 -48 4 -28 26 -64 19 -110
-20 -36 -31 -41 -41 -40 -73 2 -20 -3 -46 -9 -58 -7 -12 -12 -35 -12 -51 0
-38 -33 -70 -54 -53 -8 7 -16 25 -18 39 -3 23 -7 27 -33 25 -37 -3 -62 20 -76
69 -15 58 -5 78 40 78 26 0 51 9 80 30 41 30 46 50 13 50 -10 0 -29 11 -44 25
-19 18 -40 26 -69 27 -37 1 -43 5 -56 36 -8 19 -12 37 -9 40 3 2 22 6 43 6 21
1 59 3 85 4 47 2 47 2 42 32 -5 25 -2 31 20 41 19 9 29 9 39 0 11 -8 22 -9 43
-1 36 14 54 6 54 -24 0 -18 8 -27 31 -35 47 -16 100 -13 121 6 17 15 23 15 51
4 47 -19 98 -30 135 -31 l32 0 0 199 0 198 -100 1 c-123 1 -140 6 -140 38 0
40 -38 104 -76 126 -32 19 -34 22 -19 38 9 10 24 16 34 13 11 -3 21 -1 24 4 4
6 29 6 59 2 29 -4 90 -4 136 -1 l82 5 0 73 0 73 -343 -4 c-188 -3 -406 -7
-483 -10 l-142 -4 -7 37 c-7 38 -18 191 -34 477 -8 148 -11 166 -42 240 -35
85 -36 97 -28 365 2 41 -1 131 -5 200 -14 223 -7 563 11 581 8 8 69 15 170 21
87 4 190 12 228 17 39 5 91 7 117 4 26 -3 83 2 133 12 66 13 111 15 179 10 72
-5 99 -3 128 9 21 9 56 16 78 16 l40 0 0 240 0 240 -102 0 c-57 -1 -132 -7
-168 -15 -36 -8 -99 -14 -140 -15 -41 0 -120 -7 -174 -15 -55 -8 -143 -15
-197 -15 -54 0 -110 -5 -126 -11 -15 -6 -64 -13 -109 -16 -76 -5 -83 -4 -93
16 -9 17 -21 21 -57 21 -38 0 -46 -3 -54 -25 -11 -30 -41 -38 -134 -39 l-69
-1 -9 33 c-8 31 -11 32 -58 32 -50 0 -57 -7 -52 -51 1 -4 -7 -14 -17 -23 -13
-12 -45 -19 -105 -23 l-86 -6 0 40 c0 50 -12 60 -77 64 -57 4 -62 -1 -55 -52
4 -24 9 -27 64 -33 48 -6 59 -10 56 -24 -5 -25 -154 -32 -647 -29 -375 2 -416
4 -419 18 -2 9 5 20 15 24 10 4 126 7 258 6 189 -2 244 1 258 11 17 12 20 38
27 223 15 357 16 367 55 409 37 40 38 46 56 239 12 118 15 132 46 180 27 42
33 61 33 102 -2 112 12 372 22 403 12 39 49 67 80 59 16 -5 30 3 54 27 18 18
46 36 63 39 17 4 48 24 70 45 41 40 122 69 159 57 14 -4 26 2 40 22 l20 28
787 0 786 0 -3 69 -3 69 -276 1 c-214 2 -281 5 -293 15 -36 30 -7 76 55 87 19
4 41 13 50 20 8 8 31 19 50 26 42 14 79 37 79 49 0 5 -1726 9 -4095 9 l-4095
0 0 -1126z m335 1070 c27 -21 53 -52 62 -73 8 -20 22 -44 30 -53 21 -24 13
-62 -14 -66 -13 -2 -23 0 -23 5 0 4 -16 26 -36 48 -78 88 -109 147 -87 168 11
12 18 8 68 -29z m7245 11 c29 -35 -26 -85 -58 -53 -13 13 -16 50 -5 61 12 12
50 7 63 -8z m-384 -31 c30 -37 30 -49 -1 -79 -31 -32 -82 -33 -142 -4 -35 17
-49 19 -75 10 -18 -5 -62 -8 -98 -6 -50 3 -68 8 -81 24 -35 43 7 87 70 75 17
-4 32 -13 36 -21 7 -20 73 -10 117 18 26 16 45 19 92 16 51 -3 62 -7 82 -33z
m-1586 -135 c9 -15 8 -39 -1 -90 l-12 -69 -36 6 c-55 10 -67 20 -92 70 -21 45
-22 47 -4 60 10 8 26 14 34 14 9 0 25 7 35 15 28 21 63 19 76 -6z m-570 -33
c0 -3 -4 -8 -10 -11 -5 -3 -10 -1 -10 4 0 6 5 11 10 11 6 0 10 -2 10 -4z m940
-118 c0 -19 -12 -34 -39 -47 -39 -21 -47 2 -11 33 34 28 50 33 50 14z m-4780
-198 c0 -11 -7 -20 -15 -20 -8 0 -15 9 -15 20 0 11 7 20 15 20 8 0 15 -9 15
-20z m-136 4 c26 -10 20 -44 -8 -44 -30 0 -42 16 -26 35 14 17 13 17 34 9z
m300 -118 c-7 -19 -34 -29 -34 -12 0 16 10 26 26 26 8 0 11 -6 8 -14z m4682
-43 c-13 -13 -28 15 -20 38 l7 24 10 -28 c5 -16 6 -31 3 -34z m-4600 -41 c41
-26 68 -148 41 -183 -14 -18 -112 -92 -145 -108 -35 -18 -62 -5 -62 29 0 24 7
33 38 49 21 11 45 27 52 37 15 17 17 76 5 131 -6 29 -4 34 16 42 30 12 41 13
55 3z m2024 -216 c0 -2 -7 -6 -15 -10 -8 -3 -15 -1 -15 4 0 6 7 10 15 10 8 0
15 -2 15 -4z m710 -36 c-20 -13 -33 -13 -25 0 3 6 14 10 23 10 15 0 15 -2 2
-10z m-569 -33 c-16 -16 -26 0 -10 19 9 11 15 12 17 4 2 -6 -1 -17 -7 -23z
m309 21 c0 -4 -4 -8 -9 -8 -6 0 -12 4 -15 8 -3 5 1 9 9 9 8 0 15 -4 15 -9z
m-192 -94 c2 -28 -52 -104 -75 -104 -8 0 -11 -5 -7 -12 5 -7 2 -9 -8 -5 -10 3
-20 -3 -28 -19 -19 -34 -26 -30 -38 17 -13 50 2 96 25 78 7 -6 13 -20 13 -30
0 -10 5 -21 10 -24 6 -4 8 7 5 30 -4 33 -1 37 30 52 19 9 31 21 28 26 -3 6 -1
7 5 3 6 -3 13 -2 17 4 11 18 21 11 23 -16z m-1793 -49 c24 -14 59 -25 78 -25
43 0 49 -8 77 -97 27 -86 29 -81 -78 -160 -112 -83 -242 -202 -316 -292 -76
-91 -108 -104 -126 -53 -6 15 -15 35 -20 44 -15 26 -12 59 7 80 15 17 15 20
-7 43 -13 14 -32 25 -42 25 -9 0 -24 10 -33 23 -17 27 -84 67 -112 67 -10 0
-37 -18 -58 -40 -40 -41 -69 -51 -78 -26 -3 8 -2 40 2 72 l8 59 129 123 c126
121 157 144 181 135 18 -7 24 -49 11 -78 -16 -37 0 -45 90 -45 78 0 124 16
142 49 13 24 -1 35 -48 37 -30 1 -51 16 -52 36 0 14 33 38 53 38 12 0 29 5 37
11 24 16 108 2 155 -26z m1831 -68 c-2 -17 -8 -43 -13 -57 -6 -14 -9 -28 -6
-32 4 -8 -1 -10 -29 -12 -7 -1 -16 -5 -19 -10 -4 -5 -14 -6 -24 -3 -15 6 -15
9 -1 29 23 33 21 51 -6 43 -23 -7 -23 -7 -3 8 11 8 22 11 25 6 6 -9 31 16 50
50 15 29 29 17 26 -22z m534 28 c0 -17 -2 -18 -24 -9 -23 9 -20 24 4 24 11 0
20 -7 20 -15z m-513 -27 c-3 -8 -6 -5 -6 6 -1 11 2 17 5 13 3 -3 4 -12 1 -19z
m560 -4 c-3 -3 -12 -4 -19 -1 -8 3 -5 6 6 6 11 1 17 -2 13 -5z m143 -84 c0 -5
-4 -10 -10 -10 -5 0 -10 5 -10 10 0 6 5 10 10 10 6 0 10 -4 10 -10z m8 -210
c4 -41 -6 -83 -18 -75 -13 8 -8 116 5 112 6 -2 11 -18 13 -37z m832 -575 c55
-29 100 -94 100 -146 l0 -33 -33 36 c-17 19 -57 48 -87 63 l-55 28 -87 -18
c-94 -19 -129 -16 -108 10 7 8 9 15 4 15 -5 1 13 12 39 26 83 43 166 50 227
19z m-460 -190 c-20 -37 -6 -58 33 -51 49 9 62 -5 63 -69 0 -52 -2 -59 -32
-81 -20 -16 -34 -37 -38 -57 -5 -27 -11 -33 -34 -35 -18 -1 -36 5 -47 18 -10
11 -22 17 -28 13 -6 -4 -8 0 -4 9 3 10 0 15 -11 14 -14 -1 -16 8 -14 49 5 114
29 195 58 195 7 0 22 9 35 19 28 22 37 10 19 -24z m434 -47 c61 -78 69 -81 81
-28 7 33 22 39 32 14 7 -18 -51 -195 -78 -240 -38 -63 -187 -158 -303 -193
-107 -33 -196 -25 -224 20 -20 31 2 87 36 95 53 11 54 13 47 44 -6 27 -4 30
19 30 13 0 28 5 32 11 3 6 27 20 51 31 38 17 49 18 74 8 22 -10 32 -10 43 -1
9 8 28 10 49 6 43 -8 57 11 57 79 0 33 -6 52 -25 74 -32 39 -32 45 8 65 49 24
72 21 101 -15z m1101 -17 c44 -5 139 -15 212 -22 l132 -12 6 -40 c4 -21 16
-48 26 -58 21 -21 37 -115 44 -254 3 -44 9 -91 14 -105 5 -14 12 -155 16 -315
3 -159 8 -300 11 -311 9 -34 -16 -34 -117 1 -490 173 -464 161 -465 211 -1 21
-4 131 -8 244 -3 113 -11 266 -17 340 -6 74 -11 142 -10 150 0 8 0 50 0 93 0
43 3 82 6 87 3 5 20 7 38 5 17 -3 68 -9 112 -14z m-200 -196 l0 -100 -255 -6
c-140 -3 -257 -6 -259 -7 -2 -1 2 -9 9 -17 8 -9 10 -29 7 -49 -4 -28 -2 -35
14 -39 16 -4 19 -14 19 -66 0 -56 -3 -63 -35 -95 -29 -29 -35 -43 -35 -78 0
-61 -10 -72 -56 -65 -22 4 -43 14 -49 23 -5 10 -24 34 -41 53 -36 41 -99 207
-83 217 7 4 6 10 -1 20 -9 10 -9 22 0 49 9 28 17 35 37 35 21 0 23 3 14 14
-15 18 18 110 60 163 39 49 52 50 394 49 l260 -1 0 -100z m-2727 61 c23 -32
49 -156 32 -156 -5 0 -10 -5 -10 -11 0 -5 5 -7 10 -4 12 8 42 -57 31 -68 -11
-11 -200 20 -235 40 -16 9 -16 12 -3 25 8 8 27 39 42 69 54 106 71 127 99 122
14 -3 29 -10 34 -17z m3779 -108 c-2 -13 -4 -5 -4 17 -1 22 1 32 4 23 2 -10 2
-28 0 -40z m-2960 -113 c2 -20 -1 -35 -7 -35 -5 0 -10 19 -10 42 0 48 12 44
17 -7z m1923 -51 c0 -10 -12 -14 -40 -14 -46 0 -53 14 -12 28 32 11 52 5 52
-14z m-5767 -81 c-7 -2 -21 -2 -30 0 -10 3 -4 5 12 5 17 0 24 -2 18 -5z m80 0
c-7 -2 -21 -2 -30 0 -10 3 -4 5 12 5 17 0 24 -2 18 -5z m2337 -7 c0 -8 -4 -18
-10 -21 -5 -3 -10 3 -10 14 0 12 5 21 10 21 6 0 10 -6 10 -14z m3104 -10 c23
-13 60 -30 84 -37 24 -7 47 -21 53 -30 5 -10 15 -16 23 -13 7 3 17 -3 20 -13
9 -23 21 -303 13 -303 -20 0 -37 15 -37 32 0 13 5 18 13 15 9 -3 14 7 16 35 1
32 -1 39 -13 35 -19 -7 -26 13 -26 73 0 43 -2 48 -22 47 -13 0 -38 3 -55 7
-30 7 -34 5 -44 -21 -18 -46 -24 -97 -11 -89 7 4 12 3 12 -3 0 -5 -8 -12 -17
-14 -17 -4 -17 -5 0 -6 10 -1 21 9 27 24 7 19 17 25 40 25 25 0 30 -4 30 -22
-1 -46 -22 -59 -86 -54 -63 4 -167 43 -158 57 3 5 -1 9 -9 9 -8 0 -18 7 -21
16 -10 27 3 54 27 54 12 0 17 4 12 8 -17 11 -38 87 -31 109 9 29 48 70 71 76
38 9 48 7 89 -17z m-2403 -66 c22 -12 51 -64 55 -98 2 -20 0 -21 -13 -10 -15
12 -15 10 -4 -10 10 -20 10 -34 -5 -84 -14 -44 -20 -55 -25 -41 -14 34 -10 71
9 76 9 3 2 5 -16 6 -19 1 -31 5 -27 11 7 11 0 12 -33 4 -13 -4 -21 -13 -20
-23 2 -11 -5 -16 -24 -16 -16 -1 -28 3 -28 8 0 5 9 7 21 4 15 -4 18 -2 10 7
-5 6 -27 13 -47 14 -21 2 -42 6 -47 9 -6 3 -7 2 -4 -4 6 -9 -59 -8 -150 3 -53
6 -61 19 -33 49 29 31 60 42 155 54 44 6 105 19 135 30 66 24 66 24 91 11z
m-2912 -140 c53 -266 44 -325 -43 -261 -77 55 -81 67 -68 179 12 102 34 181
55 194 22 13 37 -16 56 -112z m3001 -8 c0 -15 -2 -15 -10 -2 -13 20 -13 33 0
25 6 -3 10 -14 10 -23z m-1405 -53 c0 -33 -1 -34 -47 -37 l-47 -3 37 39 c20
22 42 38 47 37 6 -1 10 -17 10 -36z m1305 21 c0 -5 -4 -10 -10 -10 -5 0 -10 5
-10 10 0 6 5 10 10 10 6 0 10 -4 10 -10z m-28 -62 c-1 -4 5 -5 13 -2 25 10 17
-22 -9 -39 -24 -16 -25 -19 -42 -149 -3 -27 -11 -48 -16 -48 -6 0 -8 12 -5 29
5 25 4 28 -19 23 -18 -3 -24 -11 -25 -31 l0 -26 -16 23 c-18 25 -43 29 -43 7
0 -8 -5 -15 -11 -15 -6 0 -9 7 -5 15 3 8 1 15 -4 15 -6 0 -10 -6 -10 -14 0
-20 -21 -31 -30 -16 -5 8 -9 5 -13 -10 -5 -21 -7 -21 -22 -6 -20 19 -27 20
-43 4 -9 -9 -12 -9 -12 0 0 9 -5 10 -19 2 -29 -15 -39 -12 -16 6 19 15 18 16
-12 9 -29 -6 -32 -4 -26 12 6 16 5 16 -10 5 -22 -19 -40 -5 -33 24 4 14 2 24
-4 24 -18 0 -11 26 14 49 23 21 26 22 67 8 27 -9 53 -12 70 -7 15 5 30 6 33 3
9 -9 77 8 71 18 -4 5 0 9 7 9 7 0 36 11 63 25 28 13 55 25 61 25 7 0 9 11 6
25 -2 15 0 25 7 25 6 0 11 8 12 18 0 12 3 10 11 -8 6 -14 10 -28 10 -32z m28
-68 c0 -5 -4 -10 -10 -10 -5 0 -10 5 -10 10 0 6 5 10 10 10 6 0 10 -4 10 -10z
m1690 -25 c0 -4 -7 -19 -15 -34 -13 -26 -13 -29 2 -27 10 0 19 -6 20 -14 4
-19 -24 -90 -36 -90 -16 0 -32 50 -21 70 8 16 5 19 -20 25 -38 8 -38 17 3 49
29 23 67 35 67 21z m-3848 -117 c4 -89 0 -108 -27 -118 -22 -8 -23 -12 -14
-38 9 -25 4 -41 -35 -121 l-45 -91 -7 56 c-4 35 -3 64 3 74 6 9 14 45 18 80
10 86 11 90 29 125 9 17 16 36 16 43 0 25 21 52 39 52 17 0 20 -9 23 -62z
m5721 -37 c15 -15 -48 -71 -80 -71 -59 0 -83 44 -40 75 24 18 100 16 120 -4z
m-3796 -23 c-3 -8 -6 -5 -6 6 -1 11 2 17 5 13 3 -3 4 -12 1 -19z m1427 -239
c13 -54 68 -82 147 -74 51 5 64 4 78 -12 10 -10 34 -29 54 -43 20 -14 37 -32
37 -40 0 -23 -89 -242 -107 -262 -8 -9 -17 -32 -18 -50 -2 -18 -16 -64 -30
-103 -50 -130 -108 -320 -132 -425 -13 -58 -34 -156 -48 -218 -13 -62 -34
-147 -45 -189 -12 -41 -20 -77 -18 -79 3 -2 20 1 39 6 58 17 126 11 247 -21
131 -35 142 -40 250 -110 l77 -51 25 33 c133 175 286 356 294 348 3 -3 -3 -29
-14 -57 -13 -33 -20 -77 -20 -118 0 -59 3 -68 26 -86 14 -12 23 -27 20 -35 -9
-22 36 -80 85 -112 71 -45 83 -63 76 -116 -7 -46 -42 -103 -85 -138 -44 -36
-52 -49 -52 -80 0 -41 -6 -49 -58 -75 -55 -28 -76 -28 -96 3 -9 14 -23 25 -31
25 -8 0 -21 12 -29 28 -8 15 -24 34 -36 42 -13 8 -32 24 -44 36 -43 42 -81 62
-109 57 -16 -3 -27 -1 -27 6 0 6 -9 11 -20 11 -11 0 -20 5 -20 10 0 6 -3 9 -7
9 -19 -3 -40 3 -58 16 -18 14 -18 16 -2 32 14 14 17 15 17 3 0 -10 12 -16 35
-17 20 -1 33 2 30 6 -2 5 3 8 12 7 10 0 19 6 21 15 2 11 -12 23 -44 37 -48 20
-74 20 -74 -2 0 -7 -15 -12 -35 -12 -19 0 -35 1 -35 2 0 15 14 32 23 27 6 -4
7 -1 2 6 -4 8 -17 10 -31 7 -16 -4 -26 -2 -30 8 -3 8 -19 20 -35 26 -22 10
-29 19 -29 40 0 25 -4 29 -42 35 -26 4 -50 16 -60 28 l-17 22 -15 -21 c-15
-21 -39 -28 -144 -37 -32 -3 -45 0 -52 12 -8 14 -9 13 -10 -5 0 -11 6 -28 13
-37 12 -16 142 -67 171 -67 8 0 52 -25 98 -56 97 -66 112 -79 81 -70 -50 15
-161 -37 -185 -88 -5 -11 -23 -31 -39 -44 l-29 -24 -43 34 c-23 18 -48 38 -55
45 -6 6 -33 22 -58 35 -29 14 -56 38 -72 63 -14 22 -68 84 -121 139 -135 138
-133 137 -160 189 -13 26 -41 64 -62 85 -49 46 -50 76 -6 129 30 37 35 40 77
36 47 -4 110 -30 110 -45 0 -4 5 -8 11 -8 6 0 8 8 6 18 -3 9 -8 34 -12 55 -3
21 -10 35 -16 32 -5 -4 -9 -2 -9 4 0 5 5 11 11 13 8 3 7 17 -2 48 -18 66 -18
66 -4 113 31 104 121 237 160 237 6 0 17 -17 26 -38 l15 -37 -2 54 c-2 32 4
70 14 95 9 23 16 67 16 101 0 89 -36 175 -159 381 -22 37 -16 59 25 82 16 9
33 25 36 34 3 10 16 23 29 30 12 7 43 27 66 44 69 49 180 105 203 102 15 -2
24 -14 30 -39z m-4213 -46 c5 -14 14 -103 20 -197 5 -94 14 -207 19 -251 5
-44 9 -142 9 -217 l1 -137 27 -13 c53 -25 56 -90 5 -113 -30 -13 -27 -24 8
-31 31 -7 43 -17 53 -47 5 -13 -5 -25 -41 -47 -26 -16 -56 -30 -66 -30 -35 0
-56 29 -56 79 0 37 -5 50 -27 68 -14 13 -21 23 -14 23 7 0 1 14 -14 31 -31 38
-29 59 8 77 23 11 27 19 26 50 -1 38 -16 98 -18 72 -1 -12 -3 -13 -10 -1 -7
11 -11 9 -21 -9 -10 -18 -14 -20 -21 -9 -5 8 -9 24 -9 36 0 12 -6 23 -12 26
-10 3 -8 13 6 40 12 23 17 48 13 69 -5 38 25 108 47 108 19 0 27 54 26 168 -3
241 -1 282 15 282 9 0 20 -12 26 -27z m3746 -339 c-3 -3 -12 -4 -19 -1 -8 3
-5 6 6 6 11 1 17 -2 13 -5z m-3195 -48 c4 3 8 0 8 -5 0 -6 -18 -11 -40 -11
-38 0 -39 1 -29 24 11 24 12 24 32 6 11 -11 24 -17 29 -14z m3045 -12 c-3 -3
-12 -4 -19 -1 -8 3 -5 6 6 6 11 1 17 -2 13 -5z m118 -4 c3 -5 -3 -10 -15 -10
-12 0 -18 5 -15 10 3 6 10 10 15 10 5 0 12 -4 15 -10z m129 -16 c16 -6 11 -34
-8 -34 -20 0 -39 17 -32 29 8 12 17 14 40 5z m-399 -44 c-3 -5 -13 -10 -21
-10 -8 0 -14 5 -14 10 0 6 9 10 21 10 11 0 17 -4 14 -10z m125 -4 c0 -2 -7 -6
-15 -10 -8 -3 -15 -1 -15 4 0 6 7 10 15 10 8 0 15 -2 15 -4z m133 -22 c-6 -16
-22 -18 -43 -4 -12 8 -13 11 -1 19 19 12 51 2 44 -15z m108 -27 c-13 -13 -26
-3 -16 12 3 6 11 8 17 5 6 -4 6 -10 -1 -17z m-3361 -24 c-4 -21 -15 -58 -24
-83 -8 -25 -18 -56 -20 -71 -4 -19 -20 -32 -66 -54 -33 -16 -62 -26 -66 -23
-3 3 -7 37 -8 74 -4 87 -2 80 -28 104 -19 18 -20 22 -8 30 21 13 33 8 48 -23
16 -33 29 -34 53 -6 10 12 30 22 43 22 18 0 29 8 40 31 9 17 16 24 16 16 0
-12 3 -11 11 3 15 26 17 21 9 -20z m2965 -3 c-3 -5 -10 -10 -16 -10 -5 0 -9 5
-9 10 0 6 7 10 16 10 8 0 12 -4 9 -10z m142 -5 c0 -10 -10 -15 -28 -15 -21 0
-27 4 -23 15 4 8 16 15 28 15 14 0 23 -6 23 -15z m118 -15 c-3 -5 -13 -10 -21
-10 -8 0 -14 5 -14 10 0 6 9 10 21 10 11 0 17 -4 14 -10z m-150 -70 c-3 -5
-13 -10 -21 -10 -8 0 -14 5 -14 10 0 6 9 10 21 10 11 0 17 -4 14 -10z m135
-14 c0 -19 -14 -28 -34 -20 -25 10 -19 34 9 34 15 0 25 -6 25 -14z m-479 -54
c-12 -22 -41 -48 -41 -36 0 8 40 54 47 54 2 0 -1 -8 -6 -18z m199 -12 c0 -5
-5 -10 -11 -10 -5 0 -7 5 -4 10 3 6 8 10 11 10 2 0 4 -4 4 -10z m137 -5 c0 -9
-10 -15 -24 -15 -14 0 -23 6 -23 15 0 9 9 15 23 15 14 0 24 -6 24 -15z m104
-28 c-13 -13 -26 -3 -16 12 3 6 11 8 17 5 6 -4 6 -10 -1 -17z m1729 -64 c32
-29 47 -82 37 -125 -7 -28 -80 -108 -99 -108 -21 0 -84 -24 -101 -38 -13 -11
-21 -7 -51 24 -40 41 -45 68 -20 117 75 145 163 194 234 130z m-1790 -53 c0
-5 -6 -10 -12 -10 -9 0 -8 -3 2 -10 8 -5 11 -12 8 -15 -11 -11 -28 5 -28 26 0
10 7 19 15 19 8 0 15 -4 15 -10z m3799 -9 c6 -10 8 -21 5 -24 -3 -3 15 1 42 9
26 8 74 14 106 14 58 0 59 -1 74 -35 8 -19 19 -35 25 -35 6 0 -13 -24 -44 -52
-30 -29 -64 -73 -76 -97 -22 -42 -24 -43 -61 -37 -21 3 -45 8 -53 11 -18 8
-34 -32 -42 -107 -9 -80 -30 -93 -25 -15 1 20 -7 36 -27 55 -15 15 -31 25 -35
24 -5 -1 -8 3 -8 8 0 6 7 10 15 10 9 0 16 14 20 38 3 20 9 48 12 62 4 14 7 59
8 100 1 41 3 78 4 83 2 15 51 6 60 -12z m-3715 -32 c-3 -5 -10 -7 -15 -3 -5 3
-7 10 -3 15 3 5 10 7 15 3 5 -3 7 -10 3 -15z m-284 -59 c0 -5 -2 -10 -4 -10
-3 0 -8 5 -11 10 -3 6 -1 10 4 10 6 0 11 -4 11 -10z m97 -24 c-3 -8 -1 -17 6
-20 7 -2 2 -5 -10 -5 -16 -1 -21 4 -20 19 1 11 8 20 15 20 8 0 12 -6 9 -14z
m84 -19 c-13 -13 -26 -3 -16 12 3 6 11 8 17 5 6 -4 6 -10 -1 -17z m-3689 -3
c14 -13 21 -14 32 -5 19 16 56 5 56 -15 0 -9 -7 -22 -15 -31 -14 -13 -18 -13
-39 0 -21 14 -26 14 -45 1 -39 -28 -83 20 -49 54 17 17 38 15 60 -4z m3785 -4
c-1 -11 -7 -20 -14 -20 -6 0 -11 9 -10 20 1 11 7 20 14 20 6 0 11 -9 10 -20z
m73 -20 c0 -5 -5 -10 -11 -10 -5 0 -7 5 -4 10 3 6 8 10 11 10 2 0 4 -4 4 -10z
m1679 -87 c1 -27 -9 -53 -20 -53 -5 0 -9 35 -8 78 l1 77 13 -40 c8 -22 14 -50
14 -62z m-2049 56 c0 -5 -6 -9 -12 -10 -10 0 -10 -2 0 -6 20 -8 14 -22 -9 -16
-12 4 -18 11 -15 20 3 8 6 19 6 24 0 4 7 6 15 3 8 -4 15 -10 15 -15z m100 -44
c0 -8 -7 -15 -15 -15 -8 0 -15 7 -15 15 0 8 7 15 15 15 8 0 15 -7 15 -15z
m110 6 c0 -5 -9 -7 -20 -4 -11 3 -20 7 -20 9 0 2 9 4 20 4 11 0 20 -4 20 -9z
m-3566 -29 c-115 -94 -127 -102 -160 -102 -36 0 -42 8 -22 28 8 8 9 18 1 35
-7 15 -8 29 -1 40 7 14 25 17 106 17 93 0 96 -1 76 -18z m3566 -3 c0 -4 -7 -6
-15 -3 -8 4 -15 10 -15 15 0 4 7 6 15 3 8 -4 15 -10 15 -15z m90 1 c0 -5 -4
-10 -10 -10 -5 0 -10 5 -10 10 0 6 5 10 10 10 6 0 10 -4 10 -10z m-325 -50
c-3 -5 -13 -10 -21 -10 -8 0 -12 5 -9 10 3 6 13 10 21 10 8 0 12 -4 9 -10z
m112 -30 c-1 -14 -8 -20 -24 -20 -16 0 -23 6 -23 20 0 15 7 20 24 20 19 0 24
-5 23 -20z m4225 -2 c16 -46 -49 -101 -92 -78 -24 13 -26 47 -3 72 18 21 89
25 95 6z m-4120 -13 c0 -5 -5 -11 -11 -13 -6 -2 -11 4 -11 13 0 9 5 15 11 13
6 -2 11 -8 11 -13z m4316 -33 c2 -7 -7 -12 -22 -12 -26 0 -41 14 -31 30 7 11
47 -2 53 -18z m-4548 -22 c5 0 8 -9 7 -20 -1 -14 -8 -20 -24 -20 -18 0 -23 6
-23 26 0 20 4 25 16 20 9 -3 19 -6 24 -6z m110 -40 c0 -5 -9 -10 -20 -10 -11
0 -20 5 -20 10 0 6 9 10 20 10 11 0 20 -4 20 -10z m117 -20 c-1 -19 -26 -28
-40 -14 -11 11 5 34 23 34 13 0 18 -7 17 -20z m4091 -16 c28 -8 28 -16 -2 -30
-19 -9 -28 -8 -45 5 -34 26 -8 39 47 25z m-4338 -60 c0 -17 -22 -14 -28 4 -2
7 3 12 12 12 9 0 16 -7 16 -16z m3846 -20 c10 -40 -2 -51 -19 -17 -10 18 -17
37 -17 42 0 20 30 -1 36 -25z m-3728 -2 c3 -20 0 -23 -20 -20 -15 2 -24 11
-26 26 -3 20 0 23 20 20 15 -2 24 -11 26 -26z m192 8 c8 -16 8 -18 -4 -14 -17
6 -30 34 -16 34 5 0 14 -9 20 -20z m1804 -4 c-3 -9 -10 -16 -15 -16 -6 0 -5 9
1 21 13 24 24 20 14 -5z m-1894 -27 c0 -5 -7 -9 -15 -9 -15 0 -20 12 -9 23 8
8 24 -1 24 -14z m107 -19 c14 -21 3 -33 -20 -24 -17 6 -19 44 -2 44 5 0 16 -9
22 -20z m-331 -52 c-3 -21 -8 -24 -36 -19 -5 0 -10 10 -10 21 0 15 7 20 25 20
20 0 24 -4 21 -22z m102 -20 c-3 -7 -11 -13 -18 -13 -7 0 -15 6 -17 13 -3 7 4
12 17 12 13 0 20 -5 18 -12z m110 -26 c3 -22 -4 -27 -31 -16 -20 7 -9 46 12
42 9 -2 17 -13 19 -26z m100 -20 c2 -7 -3 -12 -12 -12 -9 0 -16 7 -16 16 0 17
22 14 28 -4z m100 -28 c0 -18 -5 -24 -15 -20 -8 3 -17 6 -19 6 -2 0 -4 9 -4
20 0 13 7 20 19 20 13 0 19 -7 19 -26z m-438 -24 c0 -5 -7 -10 -15 -10 -8 0
-15 5 -15 10 0 6 7 10 15 10 8 0 15 -4 15 -10z m114 -22 c-9 -30 -8 -30 -28
-22 -9 3 -16 15 -16 25 0 14 7 19 26 19 22 0 24 -3 18 -22z m94 -19 c-2 -6 -8
-10 -13 -10 -5 0 -11 4 -13 10 -2 6 4 11 13 11 9 0 15 -5 13 -11z m105 -5 c21
-8 9 -44 -14 -44 -14 0 -19 7 -19 25 0 25 7 29 33 19z m227 -15 c-7 -11 -14
-19 -16 -16 -7 7 7 37 17 37 6 0 5 -9 -1 -21z m-658 -34 c0 -5 -5 -11 -11 -13
-6 -2 -11 4 -11 13 0 9 5 15 11 13 6 -2 11 -8 11 -13z m538 5 c0 -5 -7 -10
-15 -10 -8 0 -15 5 -15 10 0 6 7 10 15 10 8 0 15 -4 15 -10z m-427 -10 c8 0 8
-3 0 -11 -6 -6 -9 -17 -6 -24 3 -10 -2 -12 -16 -8 -14 4 -21 13 -21 30 0 19 4
24 16 19 9 -3 21 -6 27 -6z m522 0 c3 -5 1 -10 -5 -10 -6 0 -8 -4 -5 -10 3 -5
-1 -10 -9 -10 -9 0 -16 9 -16 20 0 21 24 28 35 10z m-425 -40 c0 -5 -7 -10
-15 -10 -8 0 -15 5 -15 10 0 6 7 10 15 10 8 0 15 -4 15 -10z m110 -26 c0 -20
-4 -25 -16 -20 -9 3 -18 6 -20 6 -2 0 -4 9 -4 20 0 13 7 20 20 20 15 0 20 -7
20 -26z m4316 -2 c34 -23 12 -82 -30 -82 -37 0 -51 60 -18 79 20 12 33 13 48
3z m-4218 -14 c-6 -18 -28 -21 -28 -4 0 9 7 16 16 16 9 0 14 -5 12 -12z m109
-29 c-1 -10 -9 -19 -17 -19 -23 0 -29 8 -23 29 6 25 42 16 40 -10z m-529 -7
c3 -16 -2 -22 -16 -22 -25 0 -31 7 -25 31 7 27 37 20 41 -9z m90 -20 c2 -7 -3
-12 -12 -12 -9 0 -16 7 -16 16 0 17 22 14 28 -4z m108 -24 c-2 -16 -9 -22 -22
-20 -25 5 -26 6 -18 26 3 9 15 16 25 16 14 0 18 -6 15 -22z m99 -18 c-3 -5
-13 -10 -21 -10 -8 0 -14 5 -14 10 0 6 9 10 21 10 11 0 17 -4 14 -10z m111
-22 c1 -10 -1 -20 -6 -23 -15 -9 -40 7 -40 27 0 25 42 21 46 -4z m1734 -2 c0
-2 -7 -9 -15 -16 -12 -10 -15 -10 -15 4 0 9 7 16 15 16 8 0 15 -2 15 -4z
m-1640 -21 c0 -8 -7 -15 -15 -15 -8 0 -15 7 -15 15 0 8 7 15 15 15 8 0 15 -7
15 -15z m-528 -10 c0 -5 -5 -11 -11 -13 -6 -2 -11 4 -11 13 0 9 5 15 11 13 6
-2 11 -8 11 -13z m807 -1 c18 -13 91 -148 91 -170 0 -8 -53 24 -81 48 -14 13
-34 38 -45 56 -10 17 -22 32 -26 32 -13 0 -9 38 5 43 21 9 32 7 56 -9z m-713
-2 c17 -11 13 -42 -6 -42 -12 0 -17 8 -17 25 0 26 4 30 23 17z m514 -16 c0 -3
-4 -8 -10 -11 -5 -3 -10 -1 -10 4 0 6 5 11 10 11 6 0 10 -2 10 -4z m1560 -21
c0 -14 4 -33 9 -43 26 -48 34 -232 10 -232 -4 0 -17 -9 -28 -21 -14 -15 -21
-17 -26 -8 -5 7 -4 10 1 6 6 -3 15 3 22 13 7 12 8 21 2 25 -6 3 -10 1 -10 -6
0 -7 -8 -5 -20 6 -14 13 -17 22 -10 29 5 5 10 20 10 32 0 13 4 25 9 28 10 7 3
46 -8 46 -9 0 3 123 13 139 12 19 26 12 26 -14z m-1966 -6 c-7 -11 -34 -12
-34 -1 0 14 11 21 26 15 8 -3 11 -9 8 -14z m4585 -12 c14 -16 19 -30 15 -43
-10 -27 -45 -64 -61 -64 -19 0 -63 46 -63 65 0 22 45 65 68 65 10 0 28 -11 41
-23z m-4475 -9 c-9 -30 -8 -30 -28 -22 -9 3 -16 15 -16 25 0 14 7 19 26 19 22
0 24 -3 18 -22z m94 -19 c-2 -6 -8 -10 -13 -10 -5 0 -11 4 -13 10 -2 6 4 11
13 11 9 0 15 -5 13 -11z m110 -27 c3 -16 -2 -22 -16 -22 -25 0 -31 7 -25 31 7
27 37 20 41 -9z m-526 -7 c-5 -26 -8 -29 -27 -22 -8 4 -15 16 -15 27 0 16 5
21 23 18 16 -2 21 -9 19 -23z m2058 4 c0 -5 -4 -8 -8 -5 -4 2 -14 -9 -21 -25
-7 -16 -17 -27 -22 -23 -12 7 21 64 38 64 7 0 13 -5 13 -11z m-1435 -8 c7 -12
-12 -24 -25 -16 -11 7 -4 25 10 25 5 0 11 -4 15 -9z m-533 -16 c0 -5 -5 -11
-11 -13 -6 -2 -11 4 -11 13 0 9 5 15 11 13 6 -2 11 -8 11 -13z m594 -10 c21
-16 38 -42 49 -75 24 -72 112 -146 228 -189 33 -13 34 -21 2 -51 l-25 -24
-108 110 c-99 101 -152 164 -136 164 3 0 -5 15 -18 33 -49 65 -47 74 8 32z
m1111 -8 c12 -11 22 -22 21 -26 -1 -3 7 -22 17 -42 25 -52 15 -97 -30 -128
-28 -19 -43 -22 -74 -17 -30 5 -42 2 -56 -14 -16 -18 -19 -18 -49 -3 -17 9
-47 30 -67 47 -20 17 -52 44 -72 60 -42 34 -52 57 -37 86 19 36 56 51 142 58
115 10 178 4 205 -21z m-1597 13 c4 0 6 -9 3 -20 -8 -31 -43 -26 -43 6 0 20 4
25 16 20 9 -3 19 -6 24 -6z m100 -41 c0 -5 -7 -9 -15 -9 -15 0 -20 12 -9 23 8
8 24 -1 24 -14z m107 -21 c-4 -25 -16 -31 -36 -19 -19 12 -6 41 19 41 15 0 19
-5 17 -22z m622 -14 c10 -3 11 -7 2 -18 -10 -12 -16 -12 -42 2 -50 29 -29 38
40 16z m-531 -5 c-2 -6 -8 -10 -13 -10 -5 0 -11 4 -13 10 -2 6 4 11 13 11 9 0
15 -5 13 -11z m-520 -10 c-2 -6 -8 -10 -13 -10 -5 0 -11 4 -13 10 -2 6 4 11
13 11 9 0 15 -5 13 -11z m628 -17 c1 -14 -4 -22 -16 -22 -23 0 -29 8 -23 31 7
27 38 20 39 -9z m-524 12 c12 -11 -5 -44 -23 -44 -14 0 -19 7 -19 25 0 18 5
25 18 25 10 0 21 -3 24 -6z m648 -65 c46 -78 47 -67 -22 -141 -21 -22 -38 -44
-38 -48 0 -4 -9 -10 -21 -13 -16 -4 -19 -2 -14 11 6 15 11 46 30 197 2 17 4
38 4 48 2 33 20 17 61 -54z m-555 32 c7 -12 -12 -24 -25 -16 -11 7 -4 25 10
25 5 0 11 -4 15 -9z m108 -36 c-4 -16 -10 -21 -24 -18 -10 3 -19 13 -19 22 0
24 8 30 29 24 13 -3 17 -11 14 -28z m-2659 -42 c-6 -69 -12 -189 -13 -295 l-1
-77 -27 4 c-16 2 -40 4 -55 4 -18 1 -28 6 -28 16 0 9 -9 15 -24 15 -13 0 -26
-7 -30 -15 -7 -18 -43 -20 -49 -2 -2 6 2 26 10 44 16 39 17 94 2 146 -12 43 1
66 53 93 22 12 27 11 32 -1 15 -39 84 5 73 46 -4 16 2 30 25 50 16 16 32 29
34 29 1 0 1 -26 -2 -57z m2756 26 c0 -5 -7 -9 -15 -9 -15 0 -20 12 -9 23 8 8
24 -1 24 -14z m-417 -38 c-6 -24 -43 -17 -43 8 0 25 10 32 30 21 11 -6 16 -17
13 -29z m521 17 c-8 -30 -8 -30 -26 -23 -22 9 -10 45 14 45 15 0 18 -4 12 -22z
m1000 -36 c52 -35 126 -121 126 -146 0 -24 -68 -56 -117 -55 -75 2 -203 72
-203 111 0 8 -4 18 -10 24 -13 13 36 73 74 90 48 21 70 17 130 -24z m-904 20
c0 -13 -12 -22 -22 -16 -10 6 -1 24 13 24 5 0 9 -4 9 -8z m-526 -17 c-4 -8
-10 -15 -15 -15 -5 0 -9 7 -9 15 0 8 7 15 15 15 9 0 12 -6 9 -15z m100 -1 c12
-4 13 -11 6 -24 -13 -25 -50 -15 -43 11 6 20 12 23 37 13z m101 -33 c7 -12
-12 -24 -25 -16 -11 7 -4 25 10 25 5 0 11 -4 15 -9z m107 -7 c10 -9 -4 -44
-18 -44 -17 0 -25 15 -18 34 6 16 25 21 36 10z m96 -36 c-6 -18 -28 -21 -28
-4 0 9 7 16 16 16 9 0 14 -5 12 -12z m-528 -13 c0 -8 -4 -15 -10 -15 -5 0 -10
7 -10 15 0 8 5 15 10 15 6 0 10 -7 10 -15z m628 7 c15 -10 5 -42 -12 -42 -19
0 -24 9 -19 31 6 21 11 23 31 11z m-532 -10 c17 -11 13 -42 -6 -42 -23 0 -29
8 -23 31 6 20 12 23 29 11z m104 -43 c0 -5 -7 -9 -15 -9 -15 0 -20 12 -9 23 8
8 24 -1 24 -14z m110 -19 c0 -13 -7 -20 -20 -20 -13 0 -20 7 -20 20 0 13 7 20
20 20 13 0 20 -7 20 -20z m1930 -9 c0 -18 -52 -71 -68 -70 -14 0 -12 3 6 16
12 8 22 21 22 27 0 14 20 36 32 36 4 0 8 -4 8 -9z m-1840 -9 c0 -13 -12 -22
-22 -16 -10 6 -1 24 13 24 5 0 9 -4 9 -8z m941 -3 c40 -14 94 -62 116 -103 14
-27 14 -31 -3 -43 -10 -7 -31 -13 -48 -13 -16 0 -38 -7 -47 -16 -16 -14 -23
-15 -48 -5 -40 17 -101 75 -101 96 0 18 71 95 87 95 6 0 25 -5 44 -11z m818
-18 c-10 -15 -16 -17 -26 -9 -11 9 -9 13 9 23 29 15 33 12 17 -14z m-1649 1
c0 -24 -8 -32 -26 -25 -22 8 -17 43 6 43 13 0 20 -7 20 -18z m-528 2 c3 -3 4
-13 1 -23 -3 -13 -11 -17 -24 -14 -21 6 -21 6 -13 27 6 16 25 21 36 10z
m-2698 -67 c0 -49 -2 -52 -25 -50 -13 1 -54 3 -90 5 l-66 3 56 30 c31 17 67
38 81 48 38 27 45 21 44 -36z m3318 38 c0 -5 -5 -11 -11 -13 -6 -2 -11 4 -11
13 0 9 5 15 11 13 6 -2 11 -8 11 -13z m-522 -4 c0 -5 -7 -11 -15 -15 -9 -3
-15 0 -15 9 0 8 7 15 15 15 8 0 15 -4 15 -9z m100 -26 c0 -26 -7 -30 -28 -17
-16 10 -5 42 14 42 8 0 14 -10 14 -25z m92 -20 c0 -5 -5 -11 -11 -13 -6 -2
-11 4 -11 13 0 9 5 15 11 13 6 -2 11 -8 11 -13z m108 -26 c0 -12 -7 -19 -20
-19 -19 0 -28 28 -14 43 11 11 34 -5 34 -24z m100 -20 c0 -5 -7 -9 -15 -9 -15
0 -20 12 -9 23 8 8 24 -1 24 -14z m-530 -4 c0 -8 -4 -15 -9 -15 -13 0 -22 16
-14 24 11 11 23 6 23 -9z m110 -26 c0 -12 -7 -19 -18 -19 -26 0 -33 10 -21 31
12 22 39 14 39 -12z m526 15 c-3 -9 -6 -19 -6 -24 0 -4 -8 -6 -19 -3 -25 6
-16 43 11 43 14 0 18 -5 14 -16z m1694 -174 c-6 -69 -18 -150 -27 -179 -21
-77 -69 -168 -92 -176 -11 -3 -31 -21 -45 -40 -23 -30 -28 -32 -51 -22 -32 15
-31 23 5 42 19 10 30 23 30 36 0 13 -5 18 -12 15 -7 -3 -21 -9 -30 -12 -10 -4
-18 -14 -18 -23 0 -14 -13 -17 -88 -18 -100 -2 -129 8 -98 32 11 8 26 15 34
15 12 0 12 3 2 15 -19 22 -8 27 59 27 48 0 63 4 79 22 35 38 142 218 200 336
67 136 72 130 52 -70z m-2130 145 c0 -8 -7 -15 -15 -15 -16 0 -20 12 -8 23 11
12 23 8 23 -8z m104 -30 c-4 -8 -15 -15 -26 -15 -14 0 -18 5 -14 16 3 9 6 20
6 25 0 6 8 5 20 -1 11 -6 17 -16 14 -25z m94 -16 c-2 -6 -8 -10 -13 -10 -5 0
-11 4 -13 10 -2 6 4 11 13 11 9 0 15 -5 13 -11z m104 -5 c13 -12 -4 -42 -22
-37 -12 3 -16 11 -13 24 5 18 23 25 35 13z m-522 -24 c0 -13 -7 -20 -19 -20
-14 0 -19 6 -18 20 1 12 8 20 19 20 11 0 18 -7 18 -20z m811 -78 c-11 -43 -34
-153 -51 -247 -64 -366 -92 -534 -103 -618 l-11 -88 -108 -75 c-111 -76 -127
-83 -130 -61 -4 34 -2 43 14 59 21 21 23 59 6 76 -8 8 -5 14 16 22 31 11 58
66 60 120 0 19 4 40 7 45 4 6 9 27 13 47 4 21 38 135 77 255 39 120 83 271 99
335 26 108 31 121 76 174 27 31 50 51 52 44 2 -6 -5 -46 -17 -88z m-191 70 c0
-13 -12 -22 -22 -16 -10 6 -1 24 13 24 5 0 9 -4 9 -8z m-530 -10 c0 -13 -12
-22 -22 -16 -10 6 -1 24 13 24 5 0 9 -4 9 -8z m110 -20 c0 -25 -7 -31 -29 -25
-13 3 -17 11 -14 24 7 25 43 25 43 1z m496 -9 c-10 -10 -19 5 -10 18 6 11 8
11 12 0 2 -7 1 -15 -2 -18z m-406 -11 c0 -13 -12 -22 -22 -16 -10 6 -1 24 13
24 5 0 9 -4 9 -8z m110 -21 c0 -3 -5 -13 -10 -21 -12 -19 -35 2 -27 24 6 15
37 12 37 -3z m90 -26 c0 -8 -4 -15 -9 -15 -13 0 -22 16 -14 24 11 11 23 6 23
-9z m-530 -10 c0 -8 -4 -15 -10 -15 -5 0 -10 7 -10 15 0 8 5 15 10 15 6 0 10
-7 10 -15z m110 -27 c0 -14 -5 -18 -16 -14 -9 3 -20 6 -25 6 -6 0 -5 8 1 20
13 24 40 16 40 -12z m530 19 c0 -19 -10 -27 -26 -20 -21 8 -17 33 6 33 11 0
20 -6 20 -13z m80 -17 c0 -5 -4 -10 -10 -10 -5 0 -10 5 -10 10 0 6 5 10 10 10
6 0 10 -4 10 -10z m-520 -10 c0 -5 -7 -10 -16 -10 -8 0 -12 5 -9 10 3 6 10 10
16 10 5 0 9 -4 9 -10z m102 -25 c-5 -25 -8 -29 -21 -20 -19 11 -13 47 7 43 11
-2 16 -11 14 -23z m98 -13 c0 -13 -12 -22 -22 -16 -10 6 -1 24 13 24 5 0 9 -4
9 -8z m98 -10 c17 -11 4 -42 -14 -35 -8 3 -14 14 -14 24 0 20 8 23 28 11z
m-525 -8 c14 -5 13 -44 -2 -44 -17 1 -31 18 -25 33 7 19 7 19 27 11z m623 -41
c-10 -10 -19 5 -10 18 6 11 8 11 12 0 2 -7 1 -15 -2 -18z m-526 2 c0 -8 -4
-15 -9 -15 -13 0 -22 16 -14 24 11 11 23 6 23 -9z m613 -10 c-8 -22 -22 -18
-16 5 3 11 9 17 14 15 4 -3 6 -12 2 -20z m-503 -16 c0 -12 -7 -19 -20 -19 -19
0 -28 28 -14 43 11 11 34 -5 34 -24z m90 -14 c0 -8 -4 -15 -10 -15 -5 0 -10 7
-10 15 0 8 5 15 10 15 6 0 10 -7 10 -15z m94 -1 c9 -3 16 -10 16 -16 0 -5 -4
-6 -10 -3 -6 3 -7 -1 -4 -9 7 -17 3 -19 -19 -10 -9 3 -13 13 -10 25 6 21 6 21
27 13z m106 -39 c0 -8 -4 -15 -9 -15 -13 0 -22 16 -14 24 11 11 23 6 23 -9z
m-530 -10 c0 -8 -4 -15 -10 -15 -5 0 -10 7 -10 15 0 8 5 15 10 15 6 0 10 -7
10 -15z m640 1 c0 -2 -3 -11 -6 -20 -9 -23 -33 -20 -31 4 1 12 8 20 19 20 10
0 18 -2 18 -4z m-527 -26 c-3 -11 -14 -20 -24 -20 -21 0 -22 1 -13 24 9 25 43
21 37 -4z m607 0 c0 -5 -4 -10 -10 -10 -5 0 -10 5 -10 10 0 6 5 10 10 10 6 0
10 -4 10 -10z m-515 -20 c-3 -5 -10 -10 -16 -10 -5 0 -9 5 -9 10 0 6 7 10 16
10 8 0 12 -4 9 -10z m108 -21 c-3 -10 -14 -19 -24 -19 -14 0 -18 6 -15 23 3
12 5 23 5 24 1 0 9 -1 20 -4 13 -3 17 -11 14 -24z m87 -20 c0 -5 -7 -9 -15 -9
-15 0 -20 12 -9 23 8 8 24 -1 24 -14z m-417 -30 c-3 -10 -14 -19 -24 -19 -14
0 -18 6 -15 23 3 12 5 23 5 24 1 0 9 -1 20 -4 13 -3 17 -11 14 -24z m524 11
c-1 -12 -8 -20 -19 -20 -11 0 -18 7 -18 20 0 13 7 20 19 20 14 0 19 -6 18 -20z
m93 -20 c0 -5 -4 -10 -9 -10 -6 0 -13 5 -16 10 -3 6 1 10 9 10 9 0 16 -4 16
-10z m-520 -10 c0 -5 -7 -10 -15 -10 -8 0 -15 5 -15 10 0 6 7 10 15 10 8 0 15
-4 15 -10z m600 -5 c0 -8 -4 -15 -10 -15 -5 0 -7 7 -4 15 4 8 8 15 10 15 2 0
4 -7 4 -15z m-490 1 c0 -18 -15 -36 -31 -36 -21 0 -22 1 -13 24 5 14 44 24 44
12z m90 -36 c0 -5 -7 -10 -15 -10 -8 0 -15 5 -15 10 0 6 7 10 15 10 8 0 15 -4
15 -10z m97 -20 c-1 -12 -8 -20 -19 -20 -11 0 -18 7 -18 20 0 13 7 20 19 20
14 0 19 -6 18 -20z m-537 -10 c0 -5 -2 -10 -4 -10 -3 0 -8 5 -11 10 -3 6 -1
10 4 10 6 0 11 -4 11 -10z m630 -10 c0 -5 -7 -10 -15 -10 -8 0 -15 5 -15 10 0
6 7 10 15 10 8 0 15 -4 15 -10z m-525 -10 c-3 -5 -10 -10 -16 -10 -5 0 -9 5
-9 10 0 6 7 10 16 10 8 0 12 -4 9 -10z m635 6 c0 -2 -3 -11 -6 -20 -9 -23 -33
-20 -31 4 1 12 8 20 19 20 10 0 18 -2 18 -4z m-520 -10 c0 -18 -15 -36 -31
-36 -21 0 -22 1 -13 24 5 14 44 24 44 12z m600 -16 c0 -5 -4 -10 -10 -10 -5 0
-10 5 -10 10 0 6 5 10 10 10 6 0 10 -4 10 -10z m-512 -21 c-2 -6 -8 -10 -13
-10 -5 0 -11 4 -13 10 -2 6 4 11 13 11 9 0 15 -5 13 -11z m104 -5 c7 -7 -2
-44 -11 -44 -17 1 -31 18 -25 33 6 17 25 22 36 11z m-442 -34 c0 -5 -7 -10
-16 -10 -8 0 -12 5 -9 10 3 6 10 10 16 10 5 0 9 -4 9 -10z m530 0 c0 -5 -4
-10 -10 -10 -5 0 -10 5 -10 10 0 6 5 10 10 10 6 0 10 -4 10 -10z m107 -20 c-1
-12 -8 -20 -19 -20 -11 0 -18 7 -18 20 0 13 7 20 19 20 14 0 19 -6 18 -20z
m-517 6 c0 -18 -15 -36 -31 -36 -21 0 -22 1 -13 24 5 14 44 24 44 12z m610
-27 c0 -5 -7 -9 -15 -9 -15 0 -20 12 -9 23 8 8 24 -1 24 -14z m83 -9 c-3 -11
-9 -20 -14 -20 -11 0 -11 3 -3 24 9 23 23 20 17 -4z m-603 0 c0 -5 -7 -10 -15
-10 -8 0 -15 5 -15 10 0 6 7 10 15 10 8 0 15 -4 15 -10z m102 -6 c7 -7 -2 -44
-11 -44 -17 1 -31 18 -25 33 6 17 25 22 36 11z m96 -35 c-2 -6 -8 -10 -13 -10
-5 0 -11 4 -13 10 -2 6 4 11 13 11 9 0 15 -5 13 -11z m104 -5 c3 -3 4 -13 1
-23 -3 -13 -11 -17 -24 -14 -21 6 -21 6 -13 27 6 16 25 21 36 10z m-532 -30
c0 -2 -7 -4 -15 -4 -8 0 -15 4 -15 10 0 5 7 7 15 4 8 -4 15 -8 15 -10z m630
-4 c0 -5 -7 -10 -15 -10 -8 0 -15 5 -15 10 0 6 7 10 15 10 8 0 15 -4 15 -10z
m-530 -10 c0 -5 -7 -10 -15 -10 -8 0 -15 5 -15 10 0 6 7 10 15 10 8 0 15 -4
15 -10z m630 -10 c0 -13 -7 -20 -19 -20 -14 0 -19 6 -18 20 1 12 8 20 19 20
11 0 18 -7 18 -20z m-528 4 c3 -3 4 -13 1 -23 -3 -13 -11 -17 -24 -14 -21 6
-21 6 -13 27 6 16 25 21 36 10z m608 -14 c0 -5 -4 -10 -10 -10 -5 0 -10 5 -10
10 0 6 5 10 10 10 6 0 10 -4 10 -10z m-512 -21 c-2 -6 -8 -10 -13 -10 -5 0
-11 4 -13 10 -2 6 4 11 13 11 9 0 15 -5 13 -11z m107 -9 c12 -19 -3 -39 -23
-33 -14 3 -18 11 -15 24 6 21 28 26 38 9z m-443 -35 c0 -5 -5 -11 -11 -13 -6
-2 -11 4 -11 13 0 9 5 15 11 13 6 -2 11 -8 11 -13z m538 0 c0 -8 -4 -15 -9
-15 -13 0 -22 16 -14 24 11 11 23 6 23 -9z m105 -18 c0 -9 -3 -17 -7 -17 -5 0
-14 0 -22 0 -9 0 -12 7 -9 20 7 25 38 23 38 -3z m-531 4 c11 -17 -5 -39 -25
-34 -21 6 -21 6 -13 27 7 17 29 21 38 7z m626 -22 c0 -5 -7 -9 -15 -9 -15 0
-20 12 -9 23 8 8 24 -1 24 -14z m76 -5 c-3 -9 -6 -18 -6 -20 0 -2 -4 -4 -9 -4
-5 0 -7 9 -4 20 3 11 10 20 15 20 6 0 7 -7 4 -16z m-606 -4 c0 -5 -7 -10 -15
-10 -8 0 -15 5 -15 10 0 6 7 10 15 10 8 0 15 -4 15 -10z m108 -29 c3 -19 0
-22 -13 -17 -9 3 -20 6 -25 6 -4 0 -6 9 -3 20 7 28 37 21 41 -9z m92 -16 c0
-8 -4 -15 -9 -15 -13 0 -22 16 -14 24 11 11 23 6 23 -9z m108 -3 c15 -10 5
-42 -13 -42 -18 0 -28 17 -21 35 6 17 15 18 34 7z m2527 -22 c44 -5 120 -10
169 -10 l90 0 -32 -33 c-18 -19 -51 -47 -74 -63 -22 -16 -76 -64 -120 -107
-66 -63 -83 -75 -95 -65 -11 9 -16 9 -23 -1 -6 -10 -12 -9 -29 8 -20 20 -23
20 -38 6 -8 -9 -18 -13 -21 -10 -8 8 30 34 51 35 11 0 15 5 11 11 -3 6 -19 9
-34 5 -30 -5 -61 16 -40 29 5 3 10 -1 10 -10 0 -10 5 -14 13 -11 6 3 20 9 30
12 26 10 20 27 -7 20 -26 -6 -36 6 -28 37 6 24 22 22 17 -3 -2 -13 2 -20 11
-20 8 0 14 5 14 10 0 6 9 10 20 10 13 0 20 6 19 18 0 10 -3 12 -6 5 -8 -20
-41 -15 -48 7 -3 10 -1 28 4 39 14 25 -1 35 -25 16 -25 -19 -40 -19 -24 0 9
11 9 15 1 15 -7 0 -9 5 -5 11 4 8 9 7 14 -2 6 -9 16 -5 41 15 l32 28 -36 -7
c-29 -6 -37 -4 -37 7 0 23 8 26 53 17 23 -5 78 -13 122 -19z m-3059 -2 c-3
-13 -5 -25 -5 -27 -1 -3 -6 0 -13 7 -19 19 -18 42 3 42 14 0 18 -6 15 -22z
m632 -10 c-6 -18 -28 -21 -28 -4 0 9 7 16 16 16 9 0 14 -5 12 -12z m-533 -7
c7 -12 -12 -24 -25 -16 -11 7 -4 25 10 25 5 0 11 -4 15 -9z m631 -13 c-1 -13
-6 -22 -9 -20 -4 1 -11 2 -17 2 -5 0 -10 9 -10 20 0 13 7 20 20 20 15 0 19 -6
16 -22z m-526 2 c4 0 6 -9 3 -20 -8 -31 -43 -26 -43 6 0 20 4 25 16 20 9 -3
19 -6 24 -6z m95 -29 c7 -12 -12 -24 -25 -16 -11 7 -4 25 10 25 5 0 11 -4 15
-9z m99 -7 c23 -9 20 -44 -3 -44 -23 0 -35 15 -27 35 6 17 8 17 30 9z m106
-39 c0 -8 -4 -15 -9 -15 -13 0 -22 16 -14 24 11 11 23 6 23 -9z m-532 -7 c-6
-18 -28 -21 -28 -4 0 9 7 16 16 16 9 0 14 -5 12 -12z m627 4 c18 -13 14 -42
-6 -42 -14 0 -19 7 -19 25 0 25 7 30 25 17z m-515 -32 c0 -14 -7 -20 -24 -20
-19 0 -23 4 -19 20 3 11 14 20 24 20 12 0 19 -7 19 -20z m618 -2 c-6 -18 -28
-21 -28 -4 0 9 7 16 16 16 9 0 14 -5 12 -12z m-528 -18 c0 -5 -7 -10 -16 -10
-8 0 -12 5 -9 10 3 6 10 10 16 10 5 0 9 -4 9 -10z m2695 0 c3 -5 1 -10 -4 -10
-6 0 -11 5 -11 10 0 6 2 10 4 10 3 0 8 -4 11 -10z m-2585 -20 c0 -13 -7 -20
-19 -20 -14 0 -19 6 -18 20 1 12 8 20 19 20 11 0 18 -7 18 -20z m100 -21 c0
-5 -7 -9 -15 -9 -15 0 -20 12 -9 23 8 8 24 -1 24 -14z m110 -8 c-1 -17 -20
-33 -33 -28 -23 9 -10 46 14 40 10 -3 19 -8 19 -12z m-533 -18 c-3 -19 -8 -23
-31 -23 -9 0 -14 9 -13 20 1 14 8 20 24 20 16 0 22 -5 20 -17z m623 -14 c0 -5
-7 -9 -15 -9 -15 0 -20 12 -9 23 8 8 24 -1 24 -14z m100 -9 c0 -10 -31 -22
-38 -15 -3 3 0 5 6 5 6 0 9 7 6 15 -5 11 -2 13 10 9 9 -3 16 -10 16 -14z
m-620 1 c0 -14 -18 -23 -30 -16 -6 4 -8 11 -5 16 8 12 35 12 35 0z m108 -30
c3 -19 0 -22 -13 -17 -9 3 -20 6 -25 6 -4 0 -6 9 -3 20 7 28 37 21 41 -9z m97
-11 c3 -5 -1 -10 -9 -10 -9 0 -16 5 -16 10 0 6 4 10 9 10 6 0 13 -4 16 -10z
m110 -10 c3 -5 -2 -11 -12 -11 -17 -1 -17 -2 0 -6 9 -2 17 -8 17 -13 0 -16
-43 6 -46 23 -2 19 30 24 41 7z m2585 -10 c0 -5 -4 -10 -9 -10 -6 0 -13 5 -16
10 -3 6 1 10 9 10 9 0 16 -4 16 -10z m-2480 -20 c0 -5 -7 -10 -15 -10 -8 0
-15 5 -15 10 0 6 7 10 15 10 8 0 15 -4 15 -10z m2443 -4 c4 -10 1 -13 -9 -9
-7 3 -14 9 -14 14 0 14 17 10 23 -5z m-2993 -12 c0 -17 -22 -14 -28 4 -2 7 3
12 12 12 9 0 16 -7 16 -16z m2950 6 c0 -5 -5 -10 -11 -10 -5 0 -7 5 -4 10 3 6
8 10 11 10 2 0 4 -4 4 -10z m-2846 -6 c23 -9 21 -44 -2 -44 -25 0 -31 7 -25
31 6 21 6 21 27 13z m121 -33 c7 -12 -12 -24 -25 -16 -11 7 -4 25 10 25 5 0
11 -4 15 -9z m115 -33 c0 -14 -5 -18 -16 -14 -9 3 -18 6 -20 6 -2 0 -4 9 -4
19 0 14 5 18 20 14 12 -3 20 -14 20 -25z m100 -8 c0 -5 -7 -10 -15 -10 -8 0
-15 5 -15 10 0 6 7 10 15 10 8 0 15 -4 15 -10z m-450 -20 c5 0 8 -9 7 -20 -1
-13 -8 -20 -23 -20 -16 0 -21 6 -21 26 0 18 4 24 14 20 8 -3 18 -6 23 -6z
m110 -35 c0 -8 -4 -15 -9 -15 -13 0 -22 16 -14 24 11 11 23 6 23 -9z m120 -5
c5 0 8 -9 7 -20 -1 -14 -8 -20 -24 -20 -18 0 -23 6 -23 26 0 20 4 25 16 20 9
-3 19 -6 24 -6z m-1018 -45 c10 -22 8 -30 -9 -53 -27 -37 -45 -34 -97 13 l-45
40 62 11 c34 6 65 12 70 13 4 0 13 -10 19 -24z m1123 16 c7 -12 -12 -24 -25
-16 -11 7 -4 25 10 25 5 0 11 -4 15 -9z m3332 3 c-3 -3 -12 -4 -19 -1 -8 3 -5
6 6 6 11 1 17 -2 13 -5z m-3677 -64 c0 -5 -9 -10 -20 -10 -11 0 -20 5 -20 10
0 6 9 10 20 10 11 0 20 -4 20 -10z m3625 0 c-3 -5 -11 -10 -16 -10 -6 0 -7 5
-4 10 3 6 11 10 16 10 6 0 7 -4 4 -10z m-3505 -4 c0 -18 -15 -36 -30 -36 -13
0 -18 7 -17 20 1 14 8 20 24 20 13 0 23 -2 23 -4z m91 -39 c-13 -13 -26 -3
-16 12 3 6 11 8 17 5 6 -4 6 -10 -1 -17z m-225 -55 c6 -4 11 -15 11 -25 0 -27
-41 -18 -45 11 -3 22 12 29 34 14z m99 -32 c-3 -5 -10 -10 -16 -10 -5 0 -9 5
-9 10 0 6 7 10 16 10 8 0 12 -4 9 -10z m-115 -90 c0 -5 -5 -10 -11 -10 -5 0
-7 5 -4 10 3 6 8 10 11 10 2 0 4 -4 4 -10z m-1340 -100 c0 -5 -4 -10 -10 -10
-5 0 -10 5 -10 10 0 6 5 10 10 10 6 0 10 -4 10 -10z"/>
<path d="M5230 5915 c-14 -7 -54 -17 -90 -21 -36 -3 -71 -11 -77 -16 -7 -6
-21 -8 -32 -5 -15 3 -18 -1 -17 -19 1 -22 5 -24 52 -24 93 0 167 33 198 88 9
16 -3 15 -34 -3z"/>
<path d="M6779 5785 c-2 -6 -2 -30 1 -55 5 -33 8 -40 14 -28 8 19 -6 100 -15
83z"/>
<path d="M5608 5848 c17 -8 26 -8 34 0 9 9 4 12 -22 11 -33 0 -34 -1 -12 -11z"/>
<path d="M5612 5771 c-10 -6 -7 -10 12 -13 21 -4 24 -3 15 8 -13 16 -11 16
-27 5z"/>
<path d="M5515 5760 c28 -12 37 -12 30 0 -3 6 -16 10 -28 9 -21 0 -21 -1 -2
-9z"/>
<path d="M3400 5180 c0 -5 5 -10 10 -10 6 0 10 5 10 10 0 6 -4 10 -10 10 -5 0
-10 -4 -10 -10z"/>
<path d="M4725 4238 c-22 -18 -46 -38 -53 -45 -22 -21 -2 -15 29 10 63 48 84
66 74 67 -6 0 -28 -15 -50 -32z"/>
<path d="M5075 3070 c3 -5 8 -10 11 -10 2 0 4 5 4 10 0 6 -5 10 -11 10 -5 0
-7 -4 -4 -10z"/>
<path d="M6140 890 c-13 -8 -12 -10 3 -10 9 0 17 5 17 10 0 12 -1 12 -20 0z"/>
<path d="M6559 7847 c-14 -31 -4 -107 17 -133 11 -14 17 -16 21 -6 3 7 16 25
28 38 25 27 24 49 -5 64 -10 6 -20 20 -22 32 -4 31 -26 34 -39 5z"/>
<path d="M6614 7625 c-10 -41 8 -110 29 -109 9 0 35 1 57 2 l40 2 0 54 c0 30
-4 57 -8 60 -5 3 -31 8 -60 12 -49 6 -51 6 -58 -21z"/>
<path d="M7960 7641 l-35 -6 0 -55 0 -55 53 -3 52 -3 0 55 c0 63 -13 76 -70
67z"/>
<path d="M8245 7627 c-4 -13 -5 -41 -3 -63 l3 -39 53 -3 52 -3 0 55 c0 61 -5
67 -61 73 -34 4 -39 2 -44 -20z"/>
<path d="M6957 7633 c-4 -3 -7 -31 -7 -60 l0 -54 58 3 c56 3 57 4 60 34 2 16
-2 42 -7 57 -9 24 -16 27 -54 27 -24 0 -47 -3 -50 -7z"/>
<path d="M7280 7580 l0 -60 55 0 55 0 0 44 c0 69 -5 76 -61 76 l-49 0 0 -60z"/>
<path d="M7607 7634 c-4 -4 -7 -31 -7 -61 l0 -53 55 0 56 0 -3 58 -3 57 -45 3
c-25 2 -49 0 -53 -4z"/>
<path d="M4360 7530 c0 -5 7 -10 16 -10 8 0 12 5 9 10 -3 6 -10 10 -16 10 -5
0 -9 -4 -9 -10z"/>
<path d="M3910 7340 c0 -5 5 -10 11 -10 5 0 7 5 4 10 -3 6 -8 10 -11 10 -2 0
-4 -4 -4 -10z"/>
<path d="M6576 7245 c-12 -33 5 -145 23 -145 9 0 61 67 61 79 0 5 -8 16 -19
23 -10 7 -20 22 -22 33 -5 25 -34 31 -43 10z"/>
<path d="M3098 7174 c-50 -27 -53 -47 -17 -127 18 -40 38 -78 45 -86 11 -12
10 -20 -4 -45 -22 -41 -30 -46 -74 -46 -20 0 -39 -4 -42 -9 -6 -10 45 -31 74
-31 23 0 51 -42 40 -60 -5 -8 -5 -19 0 -25 14 -16 -52 -129 -76 -131 -10 0
-88 -1 -172 -2 -152 -2 -153 -2 -150 -24 3 -22 5 -22 143 -19 101 2 146 6 163
17 12 8 22 10 22 4 0 -25 33 -5 74 45 37 46 86 144 86 174 0 15 35 40 47 33
16 -11 77 -93 91 -125 6 -15 12 -44 12 -63 0 -23 11 -52 32 -82 47 -71 118
-152 132 -152 7 0 28 -16 47 -36 36 -37 80 -65 114 -71 49 -9 150 -7 149 2 -1
6 -5 24 -8 41 -9 41 0 43 161 36 115 -5 127 -4 115 10 -10 13 -10 19 3 32 11
11 13 20 6 33 -5 10 -15 33 -21 51 -7 17 -16 32 -21 32 -5 0 -9 6 -9 13 0 20
-49 62 -107 91 -29 14 -56 26 -60 27 -5 0 -18 7 -31 15 -12 8 -27 12 -32 9 -6
-3 -10 1 -10 9 0 9 -6 16 -13 16 -7 0 -19 6 -25 13 -7 6 -16 12 -20 13 -15 1
-62 28 -62 35 0 4 -18 10 -40 14 -22 4 -40 11 -40 16 0 16 -59 36 -139 48 -43
7 -86 20 -103 32 -21 15 -36 19 -58 14 -17 -4 -30 -3 -29 2 4 28 -15 52 -45
55 -26 2 -35 11 -58 53 -14 27 -34 54 -43 61 -10 7 -17 29 -18 58 -1 25 -2 46
-2 46 0 -1 -12 -7 -27 -16z"/>
<path d="M6462 7145 c0 -16 2 -22 5 -12 2 9 2 23 0 30 -3 6 -5 -1 -5 -18z"/>
<path d="M3650 7111 c0 -6 4 -13 10 -16 6 -3 7 1 4 9 -7 18 -14 21 -14 7z"/>
<path d="M6636 7033 c-8 -19 -7 -72 0 -100 6 -21 13 -23 65 -23 l59 0 0 55 c0
61 -7 69 -77 78 -31 4 -43 1 -47 -10z"/>
<path d="M6983 7033 c-9 -3 -13 -26 -13 -64 l0 -59 55 0 55 0 0 59 c0 52 -2
59 -22 65 -27 7 -58 7 -75 -1z"/>
<path d="M7296 7018 c-7 -30 -8 -72 0 -92 4 -12 20 -16 55 -16 42 0 49 3 54
23 3 12 2 40 -2 62 -9 39 -10 40 -55 43 -40 3 -46 0 -52 -20z"/>
<path d="M7624 7026 c-3 -7 -4 -35 -2 -62 3 -46 5 -49 32 -52 15 -2 39 -1 52
2 20 5 24 13 24 47 0 61 -14 79 -61 79 -24 0 -42 -5 -45 -14z"/>
<path d="M7947 7033 c-4 -3 -7 -30 -7 -59 0 -59 7 -65 69 -57 39 5 41 7 41 42
0 70 -8 81 -54 81 -24 0 -46 -3 -49 -7z"/>
<path d="M8260 6981 c0 -53 2 -59 23 -63 12 -2 36 -1 52 2 33 6 41 28 30 86
-6 33 -7 34 -55 34 l-50 0 0 -59z"/>
<path d="M2610 6781 c0 -6 10 -22 23 -36 19 -23 32 -27 97 -32 96 -7 144 5
148 36 2 13 -2 28 -10 32 -18 12 -258 11 -258 0z"/>
<path d="M2395 6749 c-7 -22 7 -39 33 -39 14 0 14 5 6 38 -8 28 -31 29 -39 1z"/>
<path d="M6597 6653 c-10 -9 -8 -106 2 -122 7 -11 15 -10 45 8 41 26 43 31 17
55 -11 10 -22 28 -25 42 -6 23 -25 32 -39 17z"/>
<path d="M2345 6599 c-11 -4 -32 -8 -46 -8 -15 -1 -32 -7 -38 -15 -20 -23 65
-32 113 -12 34 14 40 14 59 1 27 -19 104 -19 137 0 14 8 37 14 53 15 17 0 27
5 27 15 0 14 -20 16 -142 14 -79 -1 -152 -5 -163 -10z"/>
<path d="M6471 6563 c-1 -23 4 -45 9 -48 12 -7 12 29 0 65 -7 21 -8 19 -9 -17z"/>
<path d="M6350 6528 c0 -7 5 -20 10 -28 8 -12 10 -11 10 7 0 12 -4 25 -10 28
-5 3 -10 0 -10 -7z"/>
<path d="M2250 6320 c0 -5 7 -10 15 -10 8 0 15 5 15 10 0 6 -7 10 -15 10 -8 0
-15 -4 -15 -10z"/>
<path d="M7985 5832 c-6 -4 -12 -35 -14 -69 -2 -55 -1 -62 19 -68 12 -4 37 -4
56 0 l35 6 -2 70 -2 69 -41 0 c-23 0 -46 -4 -51 -8z"/>
<path d="M8328 5822 c-33 -4 -44 -33 -34 -88 7 -35 7 -35 54 -32 l47 3 0 54
c0 59 -12 70 -67 63z"/>
<path d="M1793 5813 c15 -2 39 -2 55 0 15 2 2 4 -28 4 -30 0 -43 -2 -27 -4z"/>
<path d="M1918 5813 c18 -2 45 -2 60 0 15 2 0 4 -33 4 -33 0 -45 -2 -27 -4z"/>
<path d="M7662 5812 c-9 -6 -12 -27 -10 -63 l3 -54 46 -3 c58 -4 71 11 67 75
l-3 48 -45 3 c-25 1 -51 -2 -58 -6z"/>
<path d="M2267 5734 c-4 -4 -4 -10 -1 -15 6 -10 34 0 34 12 0 10 -24 12 -33 3z"/>
<path d="M1687 5683 c-12 -11 -7 -47 8 -67 14 -18 15 -16 15 27 0 44 -7 56
-23 40z"/>
<path d="M2256 5682 c-8 -13 11 -35 23 -28 16 10 14 36 -3 36 -8 0 -17 -4 -20
-8z"/>
<path d="M8320 5381 c0 -13 9 -20 33 -24 41 -6 57 1 57 24 0 16 -8 19 -45 19
-37 0 -45 -3 -45 -19z"/>
<path d="M7672 5371 c2 -10 16 -17 37 -19 43 -4 62 3 55 23 -9 23 -96 18 -92
-4z"/>
<path d="M8000 5375 c0 -11 11 -15 40 -15 29 0 40 4 40 15 0 11 -11 15 -40 15
-29 0 -40 -4 -40 -15z"/>
<path d="M7703 5213 c-26 -3 -33 -10 -38 -34 -4 -17 -4 -46 -1 -65 7 -34 7
-34 60 -34 62 0 69 9 60 73 -6 37 -27 70 -43 65 -3 0 -20 -3 -38 -5z"/>
<path d="M8001 5206 c-7 -8 -11 -36 -9 -68 l3 -53 46 -3 c62 -4 73 11 62 80
l-8 53 -41 3 c-27 2 -45 -2 -53 -12z"/>
<path d="M8314 5206 c-3 -7 -4 -35 -2 -62 l3 -49 55 0 c62 0 67 6 55 81 l-6
44 -50 0 c-33 0 -51 -5 -55 -14z"/>
<path d="M8336 4781 c-4 -5 -3 -17 0 -26 5 -12 17 -15 48 -13 34 2 42 7 44 26
3 20 -1 22 -42 22 -25 0 -47 -4 -50 -9z"/>
<path d="M7708 4773 c-10 -2 -18 -13 -18 -24 0 -16 7 -19 45 -19 41 0 45 2 45
25 0 21 -5 25 -27 24 -16 -1 -36 -3 -45 -6z"/>
<path d="M8015 4770 c-11 -19 6 -30 46 -30 32 0 39 3 39 20 0 17 -7 20 -39 20
-22 0 -43 -4 -46 -10z"/>
<path d="M8337 4603 c-12 -19 -16 -84 -7 -108 9 -24 14 -26 57 -23 l48 3 0 65
0 65 -47 3 c-25 2 -48 -1 -51 -5z"/>
<path d="M7690 4580 c-6 -11 -10 -42 -8 -68 l3 -47 55 0 55 0 0 65 0 65 -47 3
c-39 3 -49 0 -58 -18z"/>
<path d="M8006 4578 c-18 -69 6 -125 48 -114 12 3 31 6 44 6 20 0 22 5 22 49
0 74 -5 81 -60 81 -41 0 -49 -3 -54 -22z"/>
<path d="M0 1193 c0 -112 4 -203 8 -203 4 0 13 5 20 12 17 17 35 -3 30 -33 -2
-19 -9 -24 -30 -24 l-27 1 -1 -332 c0 -260 2 -333 12 -337 10 -4 10 -7 1 -14
-17 -12 -16 -245 0 -255 15 -10 397 -10 397 -1 0 8 -26 110 -46 179 -7 28 -14
64 -14 80 0 16 -15 66 -34 111 -19 45 -31 84 -29 87 11 10 -8 75 -33 111 -20
30 -23 42 -16 68 12 47 1 79 -38 105 -30 20 -34 28 -35 70 -1 26 -7 93 -13
150 -11 102 -44 198 -126 372 l-26 55 0 -202z"/>
</g>
</svg>
